<svg id="ico_freeship" xmlns="http://www.w3.org/2000/svg" width="48" height="30.267" viewBox="0 0 48 30.267">
  <path id="Path_509" data-name="Path 509" d="M10.974,27.3A5,5,0,0,0,6.1,31.783a4.044,4.044,0,0,0,4.092,4.484,5,5,0,0,0,4.876-4.484A4.044,4.044,0,0,0,10.974,27.3Zm26.9,0A5,5,0,0,0,33,31.783a4.044,4.044,0,0,0,4.092,4.484,5,5,0,0,0,4.876-4.484A4.044,4.044,0,0,0,37.878,27.3Zm1.177-13.452H44.66a5.051,5.051,0,0,1,5.114,5.605H44.169a1.25,1.25,0,0,0-1.22,1.121,1.013,1.013,0,0,0,1.025,1.121h5.605l-.2,2.242H46.018a1.25,1.25,0,0,0-1.22,1.121,1.013,1.013,0,0,0,1.025,1.121h3.363l-.3,3.363A3.737,3.737,0,0,1,45.234,32.9H44.018a6.933,6.933,0,0,0,.193-1.121,6.068,6.068,0,0,0-6.139-6.726l.982-11.21ZM3.281,12.726l.294-3.363A3.744,3.744,0,0,1,7.232,6h26.9a3.034,3.034,0,0,1,3.069,3.363L35.8,25.44a7.526,7.526,0,0,0-5.038,6.343,6.46,6.46,0,0,0,0,1.121H17.114a6.932,6.932,0,0,0,.193-1.121,6.068,6.068,0,0,0-6.139-6.726,7.49,7.49,0,0,0-7.313,6.726,6.464,6.464,0,0,0-.016.953,3.029,3.029,0,0,1-2.031-3.195L2.5,21.694H21.554a1.247,1.247,0,0,0,1.217-1.121,1.01,1.01,0,0,0-1.022-1.121H2.692l.392-4.484H19.9a1.249,1.249,0,0,0,1.22-1.121A1.011,1.011,0,0,0,20.1,12.726H3.281Z" transform="translate(-1.795 -6)" fill="#fff" fill-rule="evenodd"/>
</svg>
